<svg width="17" height="17" viewBox="0 0 17 17" fill="none" xmlns="http://www.w3.org/2000/svg">
<path d="M15.9572 16.3142C15.7597 16.5127 15.5229 16.6123 15.2468 16.6128C14.9708 16.6134 14.7336 16.5148 14.5353 16.3171L11.4353 13.2266C10.1871 14.1571 8.79226 14.624 7.25059 14.6271C6.30268 14.629 5.39605 14.4458 4.53072 14.0774C3.66539 13.709 2.91959 13.2126 2.29332 12.5883C1.66705 11.964 1.16814 11.2221 0.796603 10.3626C0.425065 9.50313 0.238326 8.59637 0.236388 7.64232C0.23445 6.68826 0.417497 5.77815 0.785529 4.91197C1.15356 4.04579 1.64945 3.30187 2.27319 2.6802C2.89692 2.05854 3.64071 1.56175 4.50454 1.18984C5.36837 0.817932 6.27424 0.631014 7.22215 0.629089C8.17007 0.627163 9.07669 0.810398 9.94203 1.17879C10.8074 1.54719 11.5532 2.04095 12.1794 2.66008C12.8057 3.2792 13.3046 4.0211 13.6761 4.88578C14.0477 5.75045 14.2344 6.65721 14.2363 7.60605C14.2395 9.15965 13.7788 10.5578 12.8542 11.8005L15.9543 14.8909C16.1526 15.0887 16.252 15.3257 16.2526 15.602C16.2532 15.8783 16.1547 16.1157 15.9572 16.3142ZM7.22622 2.63104C6.31997 2.63288 5.48449 2.85615 4.71976 3.30084C3.95504 3.74554 3.34951 4.35414 2.90316 5.12663C2.45681 5.89913 2.23455 6.73633 2.23638 7.63825C2.23822 8.54018 2.46387 9.37647 2.91336 10.1471C3.36284 10.9178 3.97084 11.524 4.73737 11.9655C5.50389 12.4071 6.34028 12.627 7.24653 12.6252C8.15277 12.6233 8.98826 12.4 9.75298 11.9553C10.5177 11.5107 11.1232 10.9021 11.5696 10.1296C12.0159 9.35707 12.2382 8.51986 12.2364 7.61794C12.2345 6.71602 12.0089 5.87972 11.5594 5.10904C11.1099 4.33837 10.5019 3.73224 9.73538 3.29065C8.96885 2.84907 8.13247 2.6292 7.22622 2.63104Z" fill="white"/>
</svg>
