<svg width="2412" height="1313" viewBox="0 0 2412 1313" fill="none" xmlns="http://www.w3.org/2000/svg">
<rect width="2412" height="1313" fill="white"/>
<rect x="2024" y="1138" width="8" height="88" fill="black"/>
<rect x="1854" y="240" width="9" height="936" fill="black"/>
<rect x="1765" y="322" width="8" height="115" fill="black"/>
<rect x="1727" y="388" width="5" height="19" fill="black"/>
<rect x="1765" y="59" width="8" height="223" fill="black"/>
<rect x="1802" y="30" width="8" height="181" fill="black"/>
<rect x="1341" y="67" width="8" height="284" fill="black"/>
<rect x="1304" y="22" width="8" height="371" fill="black"/>
<rect x="1009" y="437" width="8" height="236" fill="black"/>
<rect x="971" y="403" width="8" height="235" fill="black"/>
<rect x="1854" y="1206" width="9" height="20" fill="black"/>
<rect x="1741" y="1138" width="11" height="88" fill="black"/>
<rect x="1462" y="859" width="11" height="359" fill="black"/>
<rect x="1422" y="1086" width="11" height="169" fill="black"/>
<rect x="1003" y="848" width="8" height="201" fill="black"/>
<rect x="965" y="819" width="9" height="267" fill="black"/>
<rect x="689" y="790" width="8" height="267" fill="black"/>
<rect x="689" y="790" width="8" height="267" fill="black"/>
<rect x="726" y="819" width="9" height="277" fill="black"/>
<rect x="693" y="743" width="8" height="9" fill="black"/>
<rect x="693" y="719" width="8" height="13" fill="black"/>
<rect x="693" y="438" width="8" height="254" fill="black"/>
<rect x="730" y="402" width="8" height="242" fill="black"/>
<rect x="380" y="446" width="8" height="313" transform="rotate(-90 380 446)" fill="black"/>
<rect x="343" y="409" width="7" height="390" transform="rotate(-90 343 409)" fill="black"/>
<rect x="693" y="775" width="8" height="8" fill="black"/>
<rect x="695" y="692" width="4" height="27" fill="#AB8707"/>
<rect x="695" y="692" width="4" height="27" fill="#AB8707"/>
<rect x="1350" y="854" width="3" height="51" transform="rotate(-90 1350 854)" fill="#AB8707"/>
<rect x="1350" y="854" width="3" height="51" transform="rotate(-90 1350 854)" fill="#AB8707"/>
<rect x="1745" y="921" width="4" height="28" fill="#AB8707"/>
<rect x="1745" y="921" width="4" height="28" fill="#AB8707"/>
<rect x="1768" y="282" width="4" height="40" fill="#AB8707"/>
<rect x="1768" y="282" width="4" height="40" fill="#AB8707"/>
<rect x="1745" y="1095" width="4" height="43" fill="#AB8707"/>
<rect x="1745" y="1095" width="4" height="43" fill="#AB8707"/>
<rect x="1857" y="1176" width="4" height="30" fill="#AB8707"/>
<rect x="1857" y="1176" width="4" height="30" fill="#AB8707"/>
<rect x="695" y="752" width="4" height="23" fill="#AB8707"/>
<rect x="695" y="752" width="4" height="23" fill="#AB8707"/>
<rect x="372" y="731" width="8" height="321" fill="black"/>
<rect x="335" y="402" width="8" height="694" fill="black"/>
<rect x="372" y="438" width="8" height="294" fill="black"/>
<rect x="1003" y="783" width="14" height="65" fill="black"/>
<rect x="1741" y="1016" width="11" height="79" fill="black"/>
<rect x="1741" y="949" width="11" height="56" fill="black"/>
<rect x="1741" y="848" width="11" height="73" fill="black"/>
<rect x="1401" y="859" width="11" height="340" transform="rotate(-90 1401 859)" fill="black"/>
<rect x="1011" y="857" width="9" height="339" transform="rotate(-90 1011 857)" fill="black"/>
<rect x="689" y="790" width="7" height="320" transform="rotate(-90 689 790)" fill="black"/>
<rect x="734" y="827" width="8" height="231" transform="rotate(-90 734 827)" fill="black"/>
<rect x="701" y="680" width="7" height="316" transform="rotate(-90 701 680)" fill="black"/>
<rect x="730" y="644" width="7" height="249" transform="rotate(-90 730 644)" fill="black"/>
<rect x="380" y="743" width="11" height="321" transform="rotate(-90 380 743)" fill="black"/>
<rect x="343" y="748" width="5" height="29" transform="rotate(-90 343 748)" fill="#0D5FFF"/>
<rect x="697" y="933" width="5" height="29" transform="rotate(-90 697 933)" fill="#0D5FFF"/>
<rect x="974" y="949" width="5" height="29" transform="rotate(-90 974 949)" fill="#0D5FFF"/>
<rect x="1433" y="1154" width="5" height="29" transform="rotate(-90 1433 1154)" fill="#0D5FFF"/>
<rect x="2032" y="1182" width="5" height="29" transform="rotate(-90 2032 1182)" fill="#0D5FFF"/>
<rect x="1863" y="1017" width="5" height="29" transform="rotate(-90 1863 1017)" fill="#0D5FFF"/>
<rect x="1773" y="143" width="5" height="29" transform="rotate(-90 1773 143)" fill="#0D5FFF"/>
<rect x="1312" y="293" width="5" height="29" transform="rotate(-90 1312 293)" fill="#0D5FFF"/>
<rect x="701" y="560" width="5" height="29" transform="rotate(-90 701 560)" fill="#0D5FFF"/>
<rect x="453" y="409" width="5" height="29" fill="#0D5FFF"/>
<rect x="802" y="644" width="5" height="29" fill="#0D5FFF"/>
<rect x="805" y="790" width="5" height="29" fill="#0D5FFF"/>
<rect x="606" y="1059" width="5" height="29" fill="#0D5FFF"/>
<rect x="1164" y="1057" width="5" height="29" fill="#0D5FFF"/>
<rect x="1544" y="1226" width="5" height="29" fill="#0D5FFF"/>
<rect x="1956" y="1109" width="5" height="29" fill="#0D5FFF"/>
<rect x="1667" y="30" width="5" height="29" fill="#0D5FFF"/>
<rect x="1840" y="211" width="5" height="29" fill="#0D5FFF"/>
<rect x="1672" y="408" width="5" height="29" fill="#0D5FFF"/>
<rect x="1672" y="359" width="5" height="29" fill="#0D5FFF"/>
<rect x="1462" y="1016" width="11" height="290" transform="rotate(-90 1462 1016)" fill="black"/>
<rect x="1003" y="1057" width="8" height="459" transform="rotate(-90 1003 1057)" fill="black"/>
<rect x="963" y="1094" width="8" height="459" transform="rotate(-90 963 1094)" fill="black"/>
<rect x="372" y="1059" width="8" height="325" transform="rotate(-90 372 1059)" fill="black"/>
<rect x="335" y="1096" width="8" height="400" transform="rotate(-90 335 1096)" fill="black"/>
<rect x="1863" y="1147" width="9" height="161" transform="rotate(-90 1863 1147)" fill="black"/>
<rect x="2061" y="1101" width="8" height="154" fill="black"/>
<rect x="1892" y="203" width="9" height="906" fill="black"/>
<rect x="1901" y="1109" width="8" height="166" transform="rotate(-90 1901 1109)" fill="black"/>
<rect x="1765" y="248" width="8" height="89" transform="rotate(-90 1765 248)" fill="black"/>
<rect x="1802" y="211" width="8" height="97" transform="rotate(-90 1802 211)" fill="black"/>
<rect x="1017" y="446" width="9" height="756" transform="rotate(-90 1017 446)" fill="black"/>
<rect x="979" y="408" width="5" height="753" transform="rotate(-90 979 408)" fill="black"/>
<rect x="1341" y="359" width="8" height="424" transform="rotate(-90 1341 359)" fill="black"/>
<rect x="1312" y="393" width="5" height="415" transform="rotate(-90 1312 393)" fill="black"/>
<rect x="1341" y="67" width="8" height="424" transform="rotate(-90 1341 67)" fill="black"/>
<rect x="1312" y="30" width="8" height="498" transform="rotate(-90 1312 30)" fill="black"/>
<rect x="1462" y="1226" width="8" height="562" transform="rotate(-90 1462 1226)" fill="black"/>
<rect x="1422" y="1263" width="8" height="647" transform="rotate(-90 1422 1263)" fill="black"/>
<path d="M1590.81 1130H1587.54V1108.33L1580.99 1110.73V1107.78L1590.3 1104.28H1590.81V1130ZM1600.75 1128.29C1600.75 1127.73 1600.91 1127.26 1601.24 1126.89C1601.58 1126.51 1602.08 1126.33 1602.75 1126.33C1603.42 1126.33 1603.92 1126.51 1604.26 1126.89C1604.61 1127.26 1604.79 1127.73 1604.79 1128.29C1604.79 1128.83 1604.61 1129.29 1604.26 1129.65C1603.92 1130.01 1603.42 1130.19 1602.75 1130.19C1602.08 1130.19 1601.58 1130.01 1601.24 1129.65C1600.91 1129.29 1600.75 1128.83 1600.75 1128.29ZM1625.88 1119.08C1625.88 1122.89 1625.23 1125.72 1623.93 1127.57C1622.63 1129.43 1620.6 1130.35 1617.83 1130.35C1615.1 1130.35 1613.08 1129.45 1611.77 1127.64C1610.46 1125.83 1609.78 1123.12 1609.73 1119.52V1115.18C1609.73 1111.42 1610.38 1108.62 1611.68 1106.8C1612.98 1104.97 1615.02 1104.05 1617.8 1104.05C1620.55 1104.05 1622.58 1104.94 1623.88 1106.71C1625.18 1108.47 1625.85 1111.19 1625.88 1114.87V1119.08ZM1622.63 1114.64C1622.63 1111.88 1622.24 1109.88 1621.47 1108.62C1620.7 1107.36 1619.47 1106.73 1617.8 1106.73C1616.13 1106.73 1614.92 1107.35 1614.16 1108.61C1613.4 1109.86 1613 1111.79 1612.98 1114.39V1119.59C1612.98 1122.36 1613.38 1124.4 1614.18 1125.73C1614.98 1127.04 1616.2 1127.7 1617.83 1127.7C1619.44 1127.7 1620.63 1127.08 1621.4 1125.83C1622.19 1124.59 1622.6 1122.63 1622.63 1119.96V1114.64ZM1646.1 1119.08C1646.1 1122.89 1645.45 1125.72 1644.15 1127.57C1642.85 1129.43 1640.81 1130.35 1638.05 1130.35C1635.32 1130.35 1633.29 1129.45 1631.98 1127.64C1630.67 1125.83 1629.99 1123.12 1629.94 1119.52V1115.18C1629.94 1111.42 1630.59 1108.62 1631.89 1106.8C1633.2 1104.97 1635.23 1104.05 1638.01 1104.05C1640.77 1104.05 1642.79 1104.94 1644.09 1106.71C1645.39 1108.47 1646.06 1111.19 1646.1 1114.87V1119.08ZM1642.85 1114.64C1642.85 1111.88 1642.46 1109.88 1641.69 1108.62C1640.91 1107.36 1639.69 1106.73 1638.01 1106.73C1636.35 1106.73 1635.13 1107.35 1634.37 1108.61C1633.61 1109.86 1633.22 1111.79 1633.2 1114.39V1119.59C1633.2 1122.36 1633.59 1124.4 1634.39 1125.73C1635.2 1127.04 1636.42 1127.7 1638.05 1127.7C1639.65 1127.7 1640.84 1127.08 1641.62 1125.83C1642.4 1124.59 1642.81 1122.63 1642.85 1119.96V1114.64ZM1667.03 1130H1650.26V1127.66L1659.12 1117.82C1660.44 1116.33 1661.34 1115.12 1661.83 1114.2C1662.33 1113.26 1662.59 1112.29 1662.59 1111.3C1662.59 1109.96 1662.18 1108.87 1661.37 1108.01C1660.56 1107.15 1659.49 1106.73 1658.14 1106.73C1656.52 1106.73 1655.26 1107.19 1654.36 1108.12C1653.47 1109.03 1653.02 1110.31 1653.02 1111.95H1649.77C1649.77 1109.59 1650.53 1107.69 1652.04 1106.23C1653.56 1104.78 1655.6 1104.05 1658.14 1104.05C1660.52 1104.05 1662.4 1104.68 1663.78 1105.94C1665.16 1107.18 1665.86 1108.84 1665.86 1110.91C1665.86 1113.43 1664.25 1116.43 1661.04 1119.91L1654.18 1127.35H1667.03V1130Z" fill="black"/>
<path d="M1909.81 1199H1906.54V1177.33L1899.99 1179.73V1176.78L1909.3 1173.28H1909.81V1199ZM1919.75 1197.29C1919.75 1196.73 1919.91 1196.26 1920.24 1195.89C1920.58 1195.51 1921.08 1195.33 1921.75 1195.33C1922.42 1195.33 1922.92 1195.51 1923.26 1195.89C1923.61 1196.26 1923.79 1196.73 1923.79 1197.29C1923.79 1197.83 1923.61 1198.29 1923.26 1198.65C1922.92 1199.01 1922.42 1199.19 1921.75 1199.19C1921.08 1199.19 1920.58 1199.01 1920.24 1198.65C1919.91 1198.29 1919.75 1197.83 1919.75 1197.29ZM1944.88 1188.08C1944.88 1191.89 1944.23 1194.72 1942.93 1196.57C1941.63 1198.43 1939.6 1199.35 1936.83 1199.35C1934.1 1199.35 1932.08 1198.45 1930.77 1196.64C1929.46 1194.83 1928.78 1192.12 1928.73 1188.52V1184.18C1928.73 1180.42 1929.38 1177.62 1930.68 1175.8C1931.98 1173.97 1934.02 1173.05 1936.8 1173.05C1939.55 1173.05 1941.58 1173.94 1942.88 1175.71C1944.18 1177.47 1944.85 1180.19 1944.88 1183.87V1188.08ZM1941.63 1183.64C1941.63 1180.88 1941.24 1178.88 1940.47 1177.62C1939.7 1176.36 1938.47 1175.73 1936.8 1175.73C1935.13 1175.73 1933.92 1176.35 1933.16 1177.61C1932.4 1178.86 1932 1180.79 1931.98 1183.39V1188.59C1931.98 1191.36 1932.38 1193.4 1933.18 1194.73C1933.98 1196.04 1935.2 1196.7 1936.83 1196.7C1938.44 1196.7 1939.63 1196.08 1940.4 1194.83C1941.19 1193.59 1941.6 1191.63 1941.63 1188.96V1183.64ZM1965.1 1188.08C1965.1 1191.89 1964.45 1194.72 1963.15 1196.57C1961.85 1198.43 1959.81 1199.35 1957.05 1199.35C1954.32 1199.35 1952.29 1198.45 1950.98 1196.64C1949.67 1194.83 1948.99 1192.12 1948.94 1188.52V1184.18C1948.94 1180.42 1949.59 1177.62 1950.89 1175.8C1952.2 1173.97 1954.23 1173.05 1957.01 1173.05C1959.77 1173.05 1961.79 1173.94 1963.09 1175.71C1964.39 1177.47 1965.06 1180.19 1965.1 1183.87V1188.08ZM1961.85 1183.64C1961.85 1180.88 1961.46 1178.88 1960.69 1177.62C1959.91 1176.36 1958.69 1175.73 1957.01 1175.73C1955.35 1175.73 1954.13 1176.35 1953.37 1177.61C1952.61 1178.86 1952.22 1180.79 1952.2 1183.39V1188.59C1952.2 1191.36 1952.59 1193.4 1953.39 1194.73C1954.2 1196.04 1955.42 1196.7 1957.05 1196.7C1958.65 1196.7 1959.84 1196.08 1960.62 1194.83C1961.4 1193.59 1961.81 1191.63 1961.85 1188.96V1183.64ZM1979.95 1199H1976.68V1177.33L1970.12 1179.73V1176.78L1979.44 1173.28H1979.95V1199Z" fill="black"/>
<path d="M1549.81 936H1546.54V914.326L1539.99 916.734V913.781L1549.3 910.283H1549.81V936ZM1559.75 934.295C1559.75 933.732 1559.91 933.264 1560.24 932.889C1560.58 932.514 1561.08 932.326 1561.75 932.326C1562.42 932.326 1562.92 932.514 1563.26 932.889C1563.61 933.264 1563.79 933.732 1563.79 934.295C1563.79 934.834 1563.61 935.285 1563.26 935.648C1562.92 936.012 1562.42 936.193 1561.75 936.193C1561.08 936.193 1560.58 936.012 1560.24 935.648C1559.91 935.285 1559.75 934.834 1559.75 934.295ZM1584.88 925.084C1584.88 928.893 1584.23 931.723 1582.93 933.574C1581.63 935.426 1579.6 936.352 1576.83 936.352C1574.1 936.352 1572.08 935.449 1570.77 933.645C1569.46 931.828 1568.78 929.121 1568.73 925.523V921.182C1568.73 917.42 1569.38 914.625 1570.68 912.797C1571.98 910.969 1574.02 910.055 1576.8 910.055C1579.55 910.055 1581.58 910.939 1582.88 912.709C1584.18 914.467 1584.85 917.186 1584.88 920.865V925.084ZM1581.63 920.637C1581.63 917.883 1581.24 915.879 1580.47 914.625C1579.7 913.359 1578.47 912.727 1576.8 912.727C1575.13 912.727 1573.92 913.354 1573.16 914.607C1572.4 915.861 1572 917.789 1571.98 920.391V925.594C1571.98 928.359 1572.38 930.404 1573.18 931.729C1573.98 933.041 1575.2 933.697 1576.83 933.697C1578.44 933.697 1579.63 933.076 1580.4 931.834C1581.19 930.592 1581.6 928.635 1581.63 925.963V920.637ZM1605.1 925.084C1605.1 928.893 1604.45 931.723 1603.15 933.574C1601.85 935.426 1599.81 936.352 1597.05 936.352C1594.32 936.352 1592.29 935.449 1590.98 933.645C1589.67 931.828 1588.99 929.121 1588.94 925.523V921.182C1588.94 917.42 1589.59 914.625 1590.89 912.797C1592.2 910.969 1594.23 910.055 1597.01 910.055C1599.77 910.055 1601.79 910.939 1603.09 912.709C1604.39 914.467 1605.06 917.186 1605.1 920.865V925.084ZM1601.85 920.637C1601.85 917.883 1601.46 915.879 1600.69 914.625C1599.91 913.359 1598.69 912.727 1597.01 912.727C1595.35 912.727 1594.13 913.354 1593.37 914.607C1592.61 915.861 1592.22 917.789 1592.2 920.391V925.594C1592.2 928.359 1592.59 930.404 1593.39 931.729C1594.2 933.041 1595.42 933.697 1597.05 933.697C1598.65 933.697 1599.84 933.076 1600.62 931.834C1601.4 930.592 1601.81 928.635 1601.85 925.963V920.637ZM1613.99 921.621H1616.44C1617.97 921.598 1619.18 921.193 1620.06 920.408C1620.94 919.623 1621.38 918.562 1621.38 917.227C1621.38 914.227 1619.88 912.727 1616.89 912.727C1615.49 912.727 1614.36 913.131 1613.52 913.939C1612.69 914.736 1612.27 915.797 1612.27 917.121H1609.02C1609.02 915.094 1609.76 913.412 1611.23 912.076C1612.72 910.729 1614.61 910.055 1616.89 910.055C1619.31 910.055 1621.2 910.693 1622.57 911.971C1623.94 913.248 1624.63 915.023 1624.63 917.297C1624.63 918.41 1624.26 919.488 1623.54 920.531C1622.82 921.574 1621.84 922.354 1620.6 922.869C1622.01 923.314 1623.09 924.053 1623.85 925.084C1624.63 926.115 1625.01 927.375 1625.01 928.863C1625.01 931.16 1624.26 932.982 1622.76 934.33C1621.26 935.678 1619.31 936.352 1616.91 936.352C1614.51 936.352 1612.55 935.701 1611.04 934.4C1609.54 933.1 1608.79 931.383 1608.79 929.25H1612.06C1612.06 930.598 1612.5 931.676 1613.38 932.484C1614.26 933.293 1615.43 933.697 1616.91 933.697C1618.48 933.697 1619.68 933.287 1620.51 932.467C1621.35 931.646 1621.76 930.469 1621.76 928.934C1621.76 927.445 1621.3 926.303 1620.39 925.506C1619.48 924.709 1618.16 924.299 1616.44 924.275H1613.99V921.621Z" fill="black"/>
<path d="M1168.81 954H1165.54V932.326L1158.99 934.734V931.781L1168.3 928.283H1168.81V954ZM1178.75 952.295C1178.75 951.732 1178.91 951.264 1179.24 950.889C1179.58 950.514 1180.08 950.326 1180.75 950.326C1181.42 950.326 1181.92 950.514 1182.26 950.889C1182.61 951.264 1182.79 951.732 1182.79 952.295C1182.79 952.834 1182.61 953.285 1182.26 953.648C1181.92 954.012 1181.42 954.193 1180.75 954.193C1180.08 954.193 1179.58 954.012 1179.24 953.648C1178.91 953.285 1178.75 952.834 1178.75 952.295ZM1203.88 943.084C1203.88 946.893 1203.23 949.723 1201.93 951.574C1200.63 953.426 1198.6 954.352 1195.83 954.352C1193.1 954.352 1191.08 953.449 1189.77 951.645C1188.46 949.828 1187.78 947.121 1187.73 943.523V939.182C1187.73 935.42 1188.38 932.625 1189.68 930.797C1190.98 928.969 1193.02 928.055 1195.8 928.055C1198.55 928.055 1200.58 928.939 1201.88 930.709C1203.18 932.467 1203.85 935.186 1203.88 938.865V943.084ZM1200.63 938.637C1200.63 935.883 1200.24 933.879 1199.47 932.625C1198.7 931.359 1197.47 930.727 1195.8 930.727C1194.13 930.727 1192.92 931.354 1192.16 932.607C1191.4 933.861 1191 935.789 1190.98 938.391V943.594C1190.98 946.359 1191.38 948.404 1192.18 949.729C1192.98 951.041 1194.2 951.697 1195.83 951.697C1197.44 951.697 1198.63 951.076 1199.4 949.834C1200.19 948.592 1200.6 946.635 1200.63 943.963V938.637ZM1224.1 943.084C1224.1 946.893 1223.45 949.723 1222.15 951.574C1220.85 953.426 1218.81 954.352 1216.05 954.352C1213.32 954.352 1211.29 953.449 1209.98 951.645C1208.67 949.828 1207.99 947.121 1207.94 943.523V939.182C1207.94 935.42 1208.59 932.625 1209.89 930.797C1211.2 928.969 1213.23 928.055 1216.01 928.055C1218.77 928.055 1220.79 928.939 1222.09 930.709C1223.39 932.467 1224.06 935.186 1224.1 938.865V943.084ZM1220.85 938.637C1220.85 935.883 1220.46 933.879 1219.69 932.625C1218.91 931.359 1217.69 930.727 1216.01 930.727C1214.35 930.727 1213.13 931.354 1212.37 932.607C1211.61 933.861 1211.22 935.789 1211.2 938.391V943.594C1211.2 946.359 1211.59 948.404 1212.39 949.729C1213.2 951.041 1214.42 951.697 1216.05 951.697C1217.65 951.697 1218.84 951.076 1219.62 949.834C1220.4 948.592 1220.81 946.635 1220.85 943.963V938.637ZM1241.99 945.404H1245.54V948.059H1241.99V954H1238.72V948.059H1227.07V946.143L1238.53 928.406H1241.99V945.404ZM1230.76 945.404H1238.72V932.854L1238.34 933.557L1230.76 945.404Z" fill="black"/>
<path d="M486.814 867H483.545V845.326L476.988 847.734V844.781L486.305 841.283H486.814V867ZM496.746 865.295C496.746 864.732 496.91 864.264 497.238 863.889C497.578 863.514 498.082 863.326 498.75 863.326C499.418 863.326 499.922 863.514 500.262 863.889C500.613 864.264 500.789 864.732 500.789 865.295C500.789 865.834 500.613 866.285 500.262 866.648C499.922 867.012 499.418 867.193 498.75 867.193C498.082 867.193 497.578 867.012 497.238 866.648C496.91 866.285 496.746 865.834 496.746 865.295ZM521.883 856.084C521.883 859.893 521.232 862.723 519.932 864.574C518.631 866.426 516.598 867.352 513.832 867.352C511.102 867.352 509.08 866.449 507.768 864.645C506.455 862.828 505.775 860.121 505.729 856.523V852.182C505.729 848.42 506.379 845.625 507.68 843.797C508.98 841.969 511.02 841.055 513.797 841.055C516.551 841.055 518.578 841.939 519.879 843.709C521.18 845.467 521.848 848.186 521.883 851.865V856.084ZM518.631 851.637C518.631 848.883 518.244 846.879 517.471 845.625C516.697 844.359 515.473 843.727 513.797 843.727C512.133 843.727 510.92 844.354 510.158 845.607C509.396 846.861 509.004 848.789 508.98 851.391V856.594C508.98 859.359 509.379 861.404 510.176 862.729C510.984 864.041 512.203 864.697 513.832 864.697C515.438 864.697 516.627 864.076 517.4 862.834C518.186 861.592 518.596 859.635 518.631 856.963V851.637ZM542.098 856.084C542.098 859.893 541.447 862.723 540.146 864.574C538.846 866.426 536.812 867.352 534.047 867.352C531.316 867.352 529.295 866.449 527.982 864.645C526.67 862.828 525.99 860.121 525.943 856.523V852.182C525.943 848.42 526.594 845.625 527.895 843.797C529.195 841.969 531.234 841.055 534.012 841.055C536.766 841.055 538.793 841.939 540.094 843.709C541.395 845.467 542.062 848.186 542.098 851.865V856.084ZM538.846 851.637C538.846 848.883 538.459 846.879 537.686 845.625C536.912 844.359 535.688 843.727 534.012 843.727C532.348 843.727 531.135 844.354 530.373 845.607C529.611 846.861 529.219 848.789 529.195 851.391V856.594C529.195 859.359 529.594 861.404 530.391 862.729C531.199 864.041 532.418 864.697 534.047 864.697C535.652 864.697 536.842 864.076 537.615 862.834C538.4 861.592 538.811 859.635 538.846 856.963V851.637ZM547.758 854.168L549.059 841.406H562.172V844.412H551.818L551.045 851.391C552.299 850.652 553.723 850.283 555.316 850.283C557.648 850.283 559.5 851.057 560.871 852.604C562.242 854.139 562.928 856.219 562.928 858.844C562.928 861.48 562.213 863.561 560.783 865.084C559.365 866.596 557.379 867.352 554.824 867.352C552.562 867.352 550.717 866.725 549.287 865.471C547.857 864.217 547.043 862.482 546.844 860.268H549.92C550.119 861.732 550.641 862.84 551.484 863.59C552.328 864.328 553.441 864.697 554.824 864.697C556.336 864.697 557.52 864.182 558.375 863.15C559.242 862.119 559.676 860.695 559.676 858.879C559.676 857.168 559.207 855.797 558.27 854.766C557.344 853.723 556.107 853.201 554.561 853.201C553.143 853.201 552.029 853.512 551.221 854.133L550.359 854.836L547.758 854.168Z" fill="black"/>
<path d="M470.814 542H467.545V520.326L460.988 522.734V519.781L470.305 516.283H470.814V542ZM480.746 540.295C480.746 539.732 480.91 539.264 481.238 538.889C481.578 538.514 482.082 538.326 482.75 538.326C483.418 538.326 483.922 538.514 484.262 538.889C484.613 539.264 484.789 539.732 484.789 540.295C484.789 540.834 484.613 541.285 484.262 541.648C483.922 542.012 483.418 542.193 482.75 542.193C482.082 542.193 481.578 542.012 481.238 541.648C480.91 541.285 480.746 540.834 480.746 540.295ZM505.883 531.084C505.883 534.893 505.232 537.723 503.932 539.574C502.631 541.426 500.598 542.352 497.832 542.352C495.102 542.352 493.08 541.449 491.768 539.645C490.455 537.828 489.775 535.121 489.729 531.523V527.182C489.729 523.42 490.379 520.625 491.68 518.797C492.98 516.969 495.02 516.055 497.797 516.055C500.551 516.055 502.578 516.939 503.879 518.709C505.18 520.467 505.848 523.186 505.883 526.865V531.084ZM502.631 526.637C502.631 523.883 502.244 521.879 501.471 520.625C500.697 519.359 499.473 518.727 497.797 518.727C496.133 518.727 494.92 519.354 494.158 520.607C493.396 521.861 493.004 523.789 492.98 526.391V531.594C492.98 534.359 493.379 536.404 494.176 537.729C494.984 539.041 496.203 539.697 497.832 539.697C499.438 539.697 500.627 539.076 501.4 537.834C502.186 536.592 502.596 534.635 502.631 531.963V526.637ZM526.098 531.084C526.098 534.893 525.447 537.723 524.146 539.574C522.846 541.426 520.812 542.352 518.047 542.352C515.316 542.352 513.295 541.449 511.982 539.645C510.67 537.828 509.99 535.121 509.943 531.523V527.182C509.943 523.42 510.594 520.625 511.895 518.797C513.195 516.969 515.234 516.055 518.012 516.055C520.766 516.055 522.793 516.939 524.094 518.709C525.395 520.467 526.062 523.186 526.098 526.865V531.084ZM522.846 526.637C522.846 523.883 522.459 521.879 521.686 520.625C520.912 519.359 519.688 518.727 518.012 518.727C516.348 518.727 515.135 519.354 514.373 520.607C513.611 521.861 513.219 523.789 513.195 526.391V531.594C513.195 534.359 513.594 536.404 514.391 537.729C515.199 539.041 516.418 539.697 518.047 539.697C519.652 539.697 520.842 539.076 521.615 537.834C522.4 536.592 522.811 534.635 522.846 531.963V526.637ZM543.025 516.389V519.148H542.428C539.896 519.195 537.881 519.945 536.381 521.398C534.881 522.852 534.014 524.896 533.779 527.533C535.127 525.986 536.967 525.213 539.299 525.213C541.525 525.213 543.301 525.998 544.625 527.568C545.961 529.139 546.629 531.166 546.629 533.65C546.629 536.287 545.908 538.396 544.467 539.979C543.037 541.561 541.115 542.352 538.701 542.352C536.252 542.352 534.266 541.414 532.742 539.539C531.219 537.652 530.457 535.227 530.457 532.262V531.014C530.457 526.303 531.459 522.705 533.463 520.221C535.479 517.725 538.473 516.447 542.445 516.389H543.025ZM538.754 527.92C537.641 527.92 536.615 528.254 535.678 528.922C534.74 529.59 534.09 530.428 533.727 531.436V532.631C533.727 534.74 534.201 536.439 535.15 537.729C536.1 539.018 537.283 539.662 538.701 539.662C540.166 539.662 541.314 539.123 542.146 538.045C542.99 536.967 543.412 535.555 543.412 533.809C543.412 532.051 542.984 530.633 542.129 529.555C541.285 528.465 540.16 527.92 538.754 527.92Z" fill="black"/>
<path d="M1492.81 204H1489.54V182.326L1482.99 184.734V181.781L1492.3 178.283H1492.81V204ZM1502.75 202.295C1502.75 201.732 1502.91 201.264 1503.24 200.889C1503.58 200.514 1504.08 200.326 1504.75 200.326C1505.42 200.326 1505.92 200.514 1506.26 200.889C1506.61 201.264 1506.79 201.732 1506.79 202.295C1506.79 202.834 1506.61 203.285 1506.26 203.648C1505.92 204.012 1505.42 204.193 1504.75 204.193C1504.08 204.193 1503.58 204.012 1503.24 203.648C1502.91 203.285 1502.75 202.834 1502.75 202.295ZM1527.88 193.084C1527.88 196.893 1527.23 199.723 1525.93 201.574C1524.63 203.426 1522.6 204.352 1519.83 204.352C1517.1 204.352 1515.08 203.449 1513.77 201.645C1512.46 199.828 1511.78 197.121 1511.73 193.523V189.182C1511.73 185.42 1512.38 182.625 1513.68 180.797C1514.98 178.969 1517.02 178.055 1519.8 178.055C1522.55 178.055 1524.58 178.939 1525.88 180.709C1527.18 182.467 1527.85 185.186 1527.88 188.865V193.084ZM1524.63 188.637C1524.63 185.883 1524.24 183.879 1523.47 182.625C1522.7 181.359 1521.47 180.727 1519.8 180.727C1518.13 180.727 1516.92 181.354 1516.16 182.607C1515.4 183.861 1515 185.789 1514.98 188.391V193.594C1514.98 196.359 1515.38 198.404 1516.18 199.729C1516.98 201.041 1518.2 201.697 1519.83 201.697C1521.44 201.697 1522.63 201.076 1523.4 199.834C1524.19 198.592 1524.6 196.635 1524.63 193.963V188.637ZM1548.1 193.084C1548.1 196.893 1547.45 199.723 1546.15 201.574C1544.85 203.426 1542.81 204.352 1540.05 204.352C1537.32 204.352 1535.29 203.449 1533.98 201.645C1532.67 199.828 1531.99 197.121 1531.94 193.523V189.182C1531.94 185.42 1532.59 182.625 1533.89 180.797C1535.2 178.969 1537.23 178.055 1540.01 178.055C1542.77 178.055 1544.79 178.939 1546.09 180.709C1547.39 182.467 1548.06 185.186 1548.1 188.865V193.084ZM1544.85 188.637C1544.85 185.883 1544.46 183.879 1543.69 182.625C1542.91 181.359 1541.69 180.727 1540.01 180.727C1538.35 180.727 1537.13 181.354 1536.37 182.607C1535.61 183.861 1535.22 185.789 1535.2 188.391V193.594C1535.2 196.359 1535.59 198.404 1536.39 199.729C1537.2 201.041 1538.42 201.697 1540.05 201.697C1541.65 201.697 1542.84 201.076 1543.62 199.834C1544.4 198.592 1544.81 196.635 1544.85 193.963V188.637ZM1568.79 180.234L1558.19 204H1554.78L1565.34 181.078H1551.49V178.406H1568.79V180.234Z" fill="black"/>
</svg>
